{
	"asset":{
		"generator":"Khronos glTF Blender I/O v4.4.55",
		"version":"2.0"
	},
	"scene":0,
	"scenes":[
		{
			"name":"Scene",
			"nodes":[
				0,
				1,
				2,
				25,
				26,
				27,
				28,
				29,
				30,
				31,
				32,
				33,
				34
			]
		}
	],
	"nodes":[
		{
			"name":"Vac\u00edo",
			"rotation":[
				0.5,
				0.5,
				-0.5,
				0.5
			],
			"translation":[
				4.874570846557617,
				11.43364143371582,
				-2.607259750366211
			]
		},
		{
			"name":"Vac\u00edo.001",
			"rotation":[
				0.5,
				0.5,
				-0.5,
				0.5
			],
			"translation":[
				11.665432929992676,
				12.573625564575195,
				18.45560073852539
			]
		},
		{
			"name":"Vac\u00edo.002",
			"rotation":[
				0.06046224758028984,
				0.7045170664787292,
				-0.704517126083374,
				0.060462240129709244
			],
			"translation":[
				6.402796745300293,
				3.634300470352173,
				9.515317916870117
			]
		},
		{
			"name":"Bone.003",
			"rotation":[
				-0.09540871530771255,
				-9.681169643727117e-08,
				0.00040953163988888264,
				0.9954380989074707
			],
			"scale":[
				0.9999998211860657,
				0.9999997615814209,
				0.9999999403953552
			],
			"translation":[
				-3.7171412259340286e-07,
				0.17370390892028809,
				2.086162567138672e-07
			]
		},
		{
			"children":[
				3
			],
			"name":"Bone.002",
			"rotation":[
				0.10530337691307068,
				0.005214605014771223,
				0.07284338027238846,
				0.991754949092865
			],
			"scale":[
				0.9999999403953552,
				1,
				1
			],
			"translation":[
				-1.8834361981134862e-07,
				1.209341287612915,
				3.7689460441470146e-08
			]
		},
		{
			"name":"Bone.005",
			"rotation":[
				0.1087506040930748,
				-3.502157852608434e-08,
				-0.017970852553844452,
				0.9939066767692566
			],
			"scale":[
				0.9999998807907104,
				1,
				1
			],
			"translation":[
				-4.470348358154297e-08,
				1.0378775596618652,
				2.384185791015625e-07
			]
		},
		{
			"children":[
				5
			],
			"name":"Bone.004",
			"rotation":[
				0.9742494225502014,
				0.054895561188459396,
				-0.0644974559545517,
				0.20896099507808685
			],
			"scale":[
				0.9999999403953552,
				1.0000001192092896,
				0.9999999403953552
			],
			"translation":[
				-0.027653569355607033,
				1.093782901763916,
				0.4918389320373535
			]
		},
		{
			"name":"Bone.007",
			"rotation":[
				-0.09261205047369003,
				6.589096557263474e-08,
				0.01530387718230486,
				0.9955846071243286
			],
			"scale":[
				1,
				1,
				0.9999999403953552
			],
			"translation":[
				2.8312206268310547e-07,
				1.1368030309677124,
				2.7567148208618164e-07
			]
		},
		{
			"children":[
				7
			],
			"name":"Bone.006",
			"rotation":[
				-0.9730417132377625,
				-0.08799928426742554,
				0.09407129138708115,
				0.19130241870880127
			],
			"scale":[
				0.9999998807907104,
				1,
				0.9999998807907104
			],
			"translation":[
				-0.0320194810628891,
				1.1286945343017578,
				-0.4822354018688202
			]
		},
		{
			"children":[
				4,
				6,
				8
			],
			"name":"Bone.001",
			"rotation":[
				-0.0028974460437893867,
				0.0004323518951423466,
				-0.15476219356060028,
				0.987947404384613
			],
			"scale":[
				1.0000001192092896,
				0.9999998211860657,
				0.9999998807907104
			],
			"translation":[
				-1.2903069546155166e-07,
				0.9999992251396179,
				-1.7452833844799898e-07
			]
		},
		{
			"children":[
				9
			],
			"name":"Bone",
			"rotation":[
				-8.44033110070086e-09,
				-1.1428765489540638e-08,
				1.4901161193847656e-08,
				1
			],
			"scale":[
				1,
				1,
				0.9999999403953552
			],
			"translation":[
				0.024259299039840698,
				0.14680542051792145,
				0.014171063899993896
			]
		},
		{
			"name":"Bone.013",
			"rotation":[
				0.10382626950740814,
				9.014269863882873e-08,
				0.5829203724861145,
				0.8058684468269348
			],
			"scale":[
				0.9999999403953552,
				0.9999998807907104,
				1
			],
			"translation":[
				-1.0058283805847168e-07,
				2.0978102684020996,
				-5.21540641784668e-08
			]
		},
		{
			"children":[
				11
			],
			"name":"Bone.012",
			"rotation":[
				0.014107956551015377,
				-5.7769735661850063e-08,
				-0.002331277821213007,
				0.9998977780342102
			],
			"scale":[
				0.9999999403953552,
				1.0000001192092896,
				0.9999999403953552
			],
			"translation":[
				-4.7497451305389404e-08,
				1.6281862258911133,
				1.564621925354004e-07
			]
		},
		{
			"children":[
				12
			],
			"name":"Bone.008",
			"rotation":[
				-0.009612795896828175,
				0.7216371297836304,
				0.014029542915523052,
				0.6920626163482666
			],
			"scale":[
				0.9999999403953552,
				1.0000001192092896,
				1.0000001192092896
			],
			"translation":[
				-0.3953973650932312,
				0.2790086269378662,
				0.11287897080183029
			]
		},
		{
			"name":"Bone.014",
			"rotation":[
				0.09070160239934921,
				1.1748247707998871e-08,
				0.6027830243110657,
				0.7927331924438477
			],
			"scale":[
				0.9999999403953552,
				1,
				1
			],
			"translation":[
				-3.073364496231079e-07,
				2.089367389678955,
				-5.066394805908203e-07
			]
		},
		{
			"children":[
				14
			],
			"name":"Bone.011",
			"rotation":[
				-0.0062519460916519165,
				-1.6589517537468623e-09,
				0.0010330864461138844,
				0.9999799132347107
			],
			"scale":[
				1,
				0.9999999403953552,
				1
			],
			"translation":[
				1.7834827303886414e-07,
				1.5847420692443848,
				-5.029141902923584e-08
			]
		},
		{
			"children":[
				15
			],
			"name":"Bone.010",
			"rotation":[
				0.02862657979130745,
				0.7208151817321777,
				-0.041779376566410065,
				0.6912745237350464
			],
			"scale":[
				0.9999999403953552,
				0.9999998211860657,
				1
			],
			"translation":[
				0.5329068899154663,
				0.2939031422138214,
				-0.08071761578321457
			]
		},
		{
			"children":[
				13,
				16
			],
			"name":"Bone.009",
			"rotation":[
				-0.6275097131729126,
				0.06491553783416748,
				0.7741113901138306,
				0.05262177065014839
			],
			"scale":[
				0.9999998807907104,
				0.9999997615814209,
				0.9999998807907104
			],
			"translation":[
				0.024259299039840698,
				0.14680542051792145,
				0.014171063899993896
			]
		},
		{
			"name":"Bone.015",
			"rotation":[
				-0.7531155943870544,
				0.6544488668441772,
				0.050711799412965775,
				0.04406789317727089
			],
			"scale":[
				0.9999999403953552,
				0.9999998807907104,
				0.9999998807907104
			],
			"translation":[
				-1.6434212923049927,
				-3.666818380355835,
				0.6153632998466492
			]
		},
		{
			"name":"Bone.016",
			"rotation":[
				-0.7364484071731567,
				0.6686784625053406,
				0.07590992003679276,
				0.06892440468072891
			],
			"translation":[
				-1.594817042350769,
				-3.806513786315918,
				-0.7326003313064575
			]
		},
		{
			"name":"Bone.017",
			"rotation":[
				-0.9887542128562927,
				0.0727243572473526,
				0.07272452861070633,
				0.1085699200630188
			],
			"scale":[
				0.9999999403953552,
				0.9999998807907104,
				0.9999998807907104
			],
			"translation":[
				-0.0741126537322998,
				-0.2658430337905884,
				-1.2317055463790894
			]
		},
		{
			"name":"Bone.018",
			"rotation":[
				0.9878630638122559,
				-0.08912191540002823,
				-0.08912176638841629,
				0.09078063815832138
			],
			"scale":[
				0.9999998807907104,
				1,
				1
			],
			"translation":[
				-0.07552699744701385,
				-0.27440163493156433,
				1.2414140701293945
			]
		},
		{
			"mesh":0,
			"name":"Esfera.001",
			"skin":0
		},
		{
			"name":"Trayectoria_NURBS.008",
			"rotation":[
				-0.06660429388284683,
				-0.8115783929824829,
				-0.04747527092695236,
				0.5784898996353149
			],
			"scale":[
				0.13792750239372253,
				0.13792750239372253,
				0.13792750239372253
			],
			"translation":[
				0.8737246990203857,
				3.426325559616089,
				-0.2809780538082123
			]
		},
		{
			"children":[
				23
			],
			"name":"modelo"
		},
		{
			"children":[
				22,
				24,
				10,
				17,
				18,
				19,
				20,
				21
			],
			"name":"Armature",
			"rotation":[
				0,
				0,
				0.08179260045289993,
				0.9966493844985962
			],
			"scale":[
				7.250184535980225,
				7.250184535980225,
				7.250184535980225
			],
			"translation":[
				3.660407543182373,
				9.776662826538086,
				-3.21799635887146
			]
		},
		{
			"name":"C\u00edrculo_Bezier.001",
			"translation":[
				-2.2456912994384766,
				28.477935791015625,
				3.614705801010132
			]
		},
		{
			"name":"C\u00edrculo_Bezier.002",
			"translation":[
				-3.086479663848877,
				28.477935791015625,
				3.246727466583252
			]
		},
		{
			"name":"C\u00edrculo_Bezier.003",
			"translation":[
				0.500015377998352,
				28.477935791015625,
				3.614705801010132
			]
		},
		{
			"name":"C\u00edrculo_Bezier.004",
			"translation":[
				6.631946563720703,
				27.090599060058594,
				-12.681109428405762
			]
		},
		{
			"name":"C\u00edrculo_Bezier.005",
			"rotation":[
				0,
				-0.10752182453870773,
				0,
				0.994202733039856
			],
			"translation":[
				7.4150285720825195,
				27.090599060058594,
				-12.681109428405762
			]
		},
		{
			"name":"C\u00edrculo_Bezier.006",
			"rotation":[
				0,
				-0.10752182453870773,
				0,
				0.994202733039856
			],
			"translation":[
				8.280817985534668,
				27.16384506225586,
				-12.681109428405762
			]
		},
		{
			"name":"C\u00edrculo_Bezier.007",
			"rotation":[
				0,
				-0.10752182453870773,
				0,
				0.994202733039856
			],
			"translation":[
				8.720527648925781,
				27.354887008666992,
				-12.541306495666504
			]
		},
		{
			"name":"C\u00edrculo_Bezier.008",
			"rotation":[
				0,
				-0.10752182453870773,
				0,
				0.994202733039856
			],
			"translation":[
				9.464014053344727,
				27.354887008666992,
				-12.541306495666504
			]
		},
		{
			"name":"C\u00edrculo_Bezier.009",
			"rotation":[
				0,
				-0.40117570757865906,
				0,
				0.9160011410713196
			],
			"translation":[
				10.692684173583984,
				27.354887008666992,
				-11.169944763183594
			]
		}
	],
	"meshes":[
		{
			"name":"Esfera.001",
			"primitives":[
				{
					"attributes":{
						"POSITION":0,
						"NORMAL":1,
						"TEXCOORD_0":2,
						"JOINTS_0":3,
						"WEIGHTS_0":4
					},
					"indices":5
				}
			]
		}
	],
	"skins":[
		{
			"inverseBindMatrices":6,
			"joints":[
				10,
				9,
				4,
				3,
				6,
				5,
				8,
				7,
				17,
				13,
				12,
				11,
				16,
				15,
				14,
				18,
				19,
				20,
				21
			],
			"name":"Armature"
		}
	],
	"accessors":[
		{
			"bufferView":0,
			"componentType":5126,
			"count":178242,
			"max":[
				8.747454643249512,
				35.97495651245117,
				6.845556259155273
			],
			"min":[
				-2.8109920024871826,
				-21.001392364501953,
				-13.216411590576172
			],
			"type":"VEC3"
		},
		{
			"bufferView":1,
			"componentType":5126,
			"count":178242,
			"type":"VEC3"
		},
		{
			"bufferView":2,
			"componentType":5126,
			"count":178242,
			"type":"VEC2"
		},
		{
			"bufferView":3,
			"componentType":5121,
			"count":178242,
			"type":"VEC4"
		},
		{
			"bufferView":4,
			"componentType":5126,
			"count":178242,
			"type":"VEC4"
		},
		{
			"bufferView":5,
			"componentType":5125,
			"count":178266,
			"type":"SCALAR"
		},
		{
			"bufferView":6,
			"componentType":5126,
			"count":19,
			"type":"MAT4"
		}
	],
	"bufferViews":[
		{
			"buffer":0,
			"byteLength":2138904,
			"byteOffset":0,
			"target":34962
		},
		{
			"buffer":0,
			"byteLength":2138904,
			"byteOffset":2138904,
			"target":34962
		},
		{
			"buffer":0,
			"byteLength":1425936,
			"byteOffset":4277808,
			"target":34962
		},
		{
			"buffer":0,
			"byteLength":712968,
			"byteOffset":5703744,
			"target":34962
		},
		{
			"buffer":0,
			"byteLength":2851872,
			"byteOffset":6416712,
			"target":34962
		},
		{
			"buffer":0,
			"byteLength":713064,
			"byteOffset":9268584,
			"target":34963
		},
		{
			"buffer":0,
			"byteLength":1216,
			"byteOffset":9981648
		}
	],
	"buffers":[
		{
			"byteLength":9982864,
			"uri":"Duck.bin"
		}
	]
}
